<?xml version="1.0" encoding="UTF-8"?>
<svg width="115px" height="23px" viewBox="0 0 115 23" version="1.1" xmlns="http://www.w3.org/2000/svg" xmlns:xlink="http://www.w3.org/1999/xlink">
    <title>E90CA6B0-85F8-4B49-961B-98E8217A7B1E</title>
    <defs>
        <linearGradient x1="66.6020752%" y1="4.34436799%" x2="66.6020752%" y2="97.2427528%" id="linearGradient-1">
            <stop stop-color="#32AAFF" offset="0%"></stop>
            <stop stop-color="#FFFFFF" offset="99.9551309%"></stop>
        </linearGradient>
    </defs>
    <g id="申請流程" stroke="none" stroke-width="1" fill="none" fill-rule="evenodd">
        <g id="web_library" transform="translate(-30.000000, -245.000000)" fill-rule="nonzero">
            <g id="ic/logo_1024" transform="translate(30.000000, 245.000000)">
                <g id="Group">
                    <path d="M33.7373796,0.022219422 C34.6079284,0.022219422 35.0882312,0.502158938 35.0882312,1.37204931 L35.0882312,3.41179225 C35.0882312,4.07170909 34.9681555,4.52165239 34.6679662,5.09158056 L26.172611,21.259543 C25.8123839,21.9194598 25.3320811,22.219422 24.5816081,22.219422 L21.8198671,22.219422 C20.7391859,22.219422 20.3489399,21.5595052 20.8592616,20.5996262 L29.2045222,4.97159568 L21.6697725,4.97159568 C20.7992237,4.97159568 20.318921,4.49165617 20.318921,3.62176579 L20.318921,1.37204931 C20.318921,0.502158938 20.7992237,0.022219422 21.6697725,0.022219422 L33.7373796,0.022219422 Z M14.6767588,0 C15.2903312,-8.79717788e-16 15.78773,0.497398705 15.78773,1.1109711 L15.78773,21.1084509 C15.78773,21.7220233 15.2903312,22.219422 14.6767588,22.219422 L11.22846,22.219422 C10.6148876,22.219422 10.1174889,21.7220233 10.1174889,21.1084509 L10.1174889,1.1109711 C10.1174889,0.497398705 10.6148876,-1.09333184e-16 11.22846,0 L14.6767588,0 Z M4.55926994,0 C5.17284233,-8.79717788e-16 5.67024104,0.497398705 5.67024104,1.1109711 L5.67024104,21.1084509 C5.67024104,21.7220233 5.17284233,22.219422 4.55926994,22.219422 L1.1109711,22.219422 C0.497398705,22.219422 6.76575711e-14,21.7220233 6.58971086e-14,21.1084509 L6.58971086e-14,1.1109711 C6.5599923e-14,0.497398705 0.497398705,-1.09333184e-16 1.1109711,0 L4.55926994,0 Z M53.0381581,0.022219422 C53.9087069,0.022219422 54.3890096,0.502158938 54.3890096,1.37204931 L54.3890096,3.41179225 C54.3890096,4.07170909 54.268934,4.52165239 53.9687447,5.09158056 L45.4733895,21.259543 C45.1131624,21.9194598 44.6328596,22.219422 43.8823865,22.219422 L41.1206456,22.219422 C40.0399644,22.219422 39.6497184,21.5595052 40.1600401,20.5996262 L48.5053007,4.97159568 L40.970551,4.97159568 C40.1000022,4.97159568 39.6196995,4.49165617 39.6196995,3.62176579 L39.6196995,1.37204931 C39.6196995,0.502158938 40.1000022,0.022219422 40.970551,0.022219422 L53.0381581,0.022219422 Z" id="Combined-Shape" fill="#FFFFFF"></path>
                    <path d="M61.3720207,22.219422 C60.5014719,22.219422 59.9266651,21.64505 59.9266651,20.7751596 L59.9266651,11.0006491 C59.9269494,10.203116 60.5733945,9.5565437 61.3709275,9.55610241 L70.2665164,9.55435148 L70.2665164,9.55435148 C71.3783284,9.55435148 71.9342344,8.81370408 71.9342344,7.33240927 C71.9342344,5.85111447 71.3783284,5.11046707 70.2665164,5.11046707 L61.3709275,5.11046707 C60.5732834,5.11046707 59.9266651,4.46384875 59.9266651,3.66620464 L59.9266651,1.44426243 L59.9266651,1.44426243 C59.9266651,0.57437206 60.5014719,0 61.3720207,0 L70.3776976,0 C72.2688898,0 73.9455022,0.569928175 75.206297,1.67978831 C76.1969214,2.5796749 77.382113,4.60275328 77.382113,7.33240927 C77.382113,9.52213332 76.7795109,11.7085244 75.1584891,12.9983619 C73.8376564,14.0482296 72.2688898,14.6648185 70.3776976,14.6648185 L65.5969061,14.6648185 L65.5969061,20.7751596 C65.5969061,21.64505 65.0220993,22.219422 64.1515506,22.219422 L61.3720207,22.219422 Z" id="Path" fill="#FFFFFF"></path>
                    <path d="M77.382113,7.33240927 C77.382113,8.08582875 77.3107742,8.83885366 77.1511594,9.55510078 L70.2665164,9.55435148 C71.3751917,9.55435148 71.9342344,8.50226184 71.9342344,7.33240927 C71.9342344,6.3125378 71.3751917,5.11046707 70.2665164,5.11046707 L77.1074015,5.1090428 C77.2786862,5.78134489 77.382113,6.52604702 77.382113,7.33240927 Z" id="Combined-Shape" fill="#FFFFFF"></path>
                    <path d="M77.382113,7.33240927 C77.382113,8.08582875 77.3107742,8.83885366 77.1511594,9.55510078 L70.2665164,9.55435148 C71.3751917,9.55435148 71.9342344,8.50226184 71.9342344,7.33240927 C71.9342344,6.3125378 71.3751917,5.11046707 70.2665164,5.11046707 L77.1074015,5.1090428 C77.2786862,5.78134489 77.382113,6.52604702 77.382113,7.33240927 Z" id="Combined-Shape" fill="url(#linearGradient-1)"></path>
                    <path d="M88.6531036,-3.4812e-12 C89.4636145,-3.4812e-12 89.9439173,0.359954637 90.2140876,1.07986391 L97.0584021,20.6373992 C97.3886103,21.5972782 96.9683453,22.1972026 95.9477019,22.1972026 L92.7356772,22.1972026 C91.9251662,22.1972026 91.4448635,21.837248 91.2047121,21.0873425 L90.1840687,18.0877205 L83.7900381,18.0877205 L82.7393758,21.0873425 C82.4692055,21.837248 81.9889027,22.1972026 81.1783918,22.1972026 L77.9363481,22.1972026 C76.9157047,22.1972026 76.4954397,21.5972782 76.8256479,20.6373992 L83.6999813,1.07986391 C83.9701516,0.359954637 84.4504544,-3.4812e-12 85.2309464,-3.4812e-12 L88.6531036,-3.4812e-12 Z M100.6326,-2.17557773e-12 C101.353054,-2.17557773e-12 101.863376,0.269965978 102.253622,0.899886593 L105.37559,5.90925529 L108.497558,0.899886593 C108.887804,0.269965978 109.398126,-2.17557773e-12 110.11858,-2.17557773e-12 L113.690832,-2.17557773e-12 C114.801532,-2.17557773e-12 115.191778,0.689913054 114.5914,1.61979587 L108.227388,11.878503 L108.227388,20.8473727 C108.227388,21.7172631 107.747085,22.1972026 106.876536,22.1972026 L103.904663,22.1972026 C103.034114,22.1972026 102.553811,21.7172631 102.553811,20.8473727 L102.553811,11.878503 L96.1597808,1.61979587 C95.5894212,0.689913054 95.9496483,-2.17557773e-12 97.0603484,-2.17557773e-12 L100.6326,-2.17557773e-12 Z M86.942025,7.2890814 L84.9607761,13.4383065 L89.1334064,13.4383065 L86.942025,7.2890814 Z" id="Combined-Shape" fill="#FFFFFF"></path>
                </g>
            </g>
        </g>
    </g>
</svg>