<?xml version="1.0" encoding="UTF-8"?>
<svg width="202px" height="42px" viewBox="0 0 202 42" version="1.1" xmlns="http://www.w3.org/2000/svg" xmlns:xlink="http://www.w3.org/1999/xlink">
    <title>84E696B0-984C-4297-B931-8901A259CAAB</title>
    <g id="申請流程" stroke="none" stroke-width="1" fill="none" fill-rule="evenodd">
        <g id="web_library" transform="translate(-38.000000, -890.000000)">
            <g id="btn/upload/normal_1024_04" transform="translate(38.000000, 890.000000)">
                <g id="Group-4-Copy">
                    <g id="Group-2" transform="translate(26.000000, 9.000000)">
                        <text id="上傳身分證正反面" font-family="NotoSansCJKtc-Regular, Noto Sans CJK TC" font-size="16" font-weight="normal" letter-spacing="2.06451613" fill="#9E0000">
                            <tspan x="0.274193548" y="19">上傳變更登記表</tspan>
                        </text>
                        <g id="ic_upload" transform="translate(136.000000, 0.000000)">
                            <g>
                                <rect id="Rectangle" x="0" y="0" width="24" height="24"></rect>
                                <polyline id="Path" stroke="#9E0000" stroke-linecap="round" stroke-linejoin="round" points="19 13 19 20 5 20 5 13"></polyline>
                                <path d="M12.5579785,4.21483198 L16.863534,8.52038754 C17.1013233,8.75817681 17.1013233,9.14370938 16.863534,9.38149865 L16.8498027,9.39522995 C16.6120135,9.63301922 16.2264809,9.63301922 15.9886916,9.39522995 L12.53,5.936 L12.5305537,15.4694463 C12.5305537,15.762463 12.2930167,16 12,16 C11.7069833,16 11.4694463,15.762463 11.4694463,15.4694463 L11.469,5.991 L7.99757709,9.4652506 C7.75978782,9.70303986 7.37425524,9.70303986 7.13646598,9.4652506 C6.89867671,9.22746133 6.89867671,8.84192875 7.13646598,8.60413948 L11.5244093,4.21619612 C11.6630639,4.07754153 11.8519518,4.01973624 12.0324911,4.04278024 C12.2186274,4.01485158 12.4150077,4.07186119 12.5579785,4.21483198 Z" id="Combined-Shape" fill="#9E0000"></path>
                            </g>
                        </g>
                    </g>
                    <rect id="Rectangle-Copy-6" stroke="#9E0000" stroke-linecap="square" x="1" y="1" width="200" height="40" rx="20"></rect>
                </g>
            </g>
        </g>
    </g>
</svg>